<svg xmlns="http://www.w3.org/2000/svg" viewBox="0 0 1200 240" font-family="ui-monospace,SFMono-Regular,Menlo,Consolas,'Liberation Mono',monospace"><rect width="1200" height="240" fill="#0b0f14"/><line x1="0" y1="0" x2="0" y2="240" stroke="#151b26" stroke-width="1"/><line x1="28" y1="0" x2="28" y2="240" stroke="#151b26" stroke-width="1"/><line x1="56" y1="0" x2="56" y2="240" stroke="#151b26" stroke-width="1"/><line x1="84" y1="0" x2="84" y2="240" stroke="#151b26" stroke-width="1"/><line x1="112" y1="0" x2="112" y2="240" stroke="#151b26" stroke-width="1"/><line x1="140" y1="0" x2="140" y2="240" stroke="#151b26" stroke-width="1"/><line x1="168" y1="0" x2="168" y2="240" stroke="#151b26" stroke-width="1"/><line x1="196" y1="0" x2="196" y2="240" stroke="#151b26" stroke-width="1"/><line x1="224" y1="0" x2="224" y2="240" stroke="#151b26" stroke-width="1"/><line x1="252" y1="0" x2="252" y2="240" stroke="#151b26" stroke-width="1"/><line x1="280" y1="0" x2="280" y2="240" stroke="#151b26" stroke-width="1"/><line x1="308" y1="0" x2="308" y2="240" stroke="#151b26" stroke-width="1"/><line x1="336" y1="0" x2="336" y2="240" stroke="#151b26" stroke-width="1"/><line x1="364" y1="0" x2="364" y2="240" stroke="#151b26" stroke-width="1"/><line x1="392" y1="0" x2="392" y2="240" stroke="#151b26" stroke-width="1"/><line x1="420" y1="0" x2="420" y2="240" stroke="#151b26" stroke-width="1"/><line x1="448" y1="0" x2="448" y2="240" stroke="#151b26" stroke-width="1"/><line x1="476" y1="0" x2="476" y2="240" stroke="#151b26" stroke-width="1"/><line x1="504" y1="0" x2="504" y2="240" stroke="#151b26" stroke-width="1"/><line x1="532" y1="0" x2="532" y2="240" stroke="#151b26" stroke-width="1"/><line x1="560" y1="0" x2="560" y2="240" stroke="#151b26" stroke-width="1"/><line x1="588" y1="0" x2="588" y2="240" stroke="#151b26" stroke-width="1"/><line x1="616" y1="0" x2="616" y2="240" stroke="#151b26" stroke-width="1"/><line x1="644" y1="0" x2="644" y2="240" stroke="#151b26" stroke-width="1"/><line x1="672" y1="0" x2="672" y2="240" stroke="#151b26" stroke-width="1"/><line x1="700" y1="0" x2="700" y2="240" stroke="#151b26" stroke-width="1"/><line x1="728" y1="0" x2="728" y2="240" stroke="#151b26" stroke-width="1"/><line x1="756" y1="0" x2="756" y2="240" stroke="#151b26" stroke-width="1"/><line x1="784" y1="0" x2="784" y2="240" stroke="#151b26" stroke-width="1"/><line x1="812" y1="0" x2="812" y2="240" stroke="#151b26" stroke-width="1"/><line x1="840" y1="0" x2="840" y2="240" stroke="#151b26" stroke-width="1"/><line x1="868" y1="0" x2="868" y2="240" stroke="#151b26" stroke-width="1"/><line x1="896" y1="0" x2="896" y2="240" stroke="#151b26" stroke-width="1"/><line x1="924" y1="0" x2="924" y2="240" stroke="#151b26" stroke-width="1"/><line x1="952" y1="0" x2="952" y2="240" stroke="#151b26" stroke-width="1"/><line x1="980" y1="0" x2="980" y2="240" stroke="#151b26" stroke-width="1"/><line x1="1008" y1="0" x2="1008" y2="240" stroke="#151b26" stroke-width="1"/><line x1="1036" y1="0" x2="1036" y2="240" stroke="#151b26" stroke-width="1"/><line x1="1064" y1="0" x2="1064" y2="240" stroke="#151b26" stroke-width="1"/><line x1="1092" y1="0" x2="1092" y2="240" stroke="#151b26" stroke-width="1"/><line x1="1120" y1="0" x2="1120" y2="240" stroke="#151b26" stroke-width="1"/><line x1="1148" y1="0" x2="1148" y2="240" stroke="#151b26" stroke-width="1"/><line x1="1176" y1="0" x2="1176" y2="240" stroke="#151b26" stroke-width="1"/><line x1="0" y1="0" x2="1200" y2="0" stroke="#151b26" stroke-width="1"/><line x1="0" y1="28" x2="1200" y2="28" stroke="#151b26" stroke-width="1"/><line x1="0" y1="56" x2="1200" y2="56" stroke="#151b26" stroke-width="1"/><line x1="0" y1="84" x2="1200" y2="84" stroke="#151b26" stroke-width="1"/><line x1="0" y1="112" x2="1200" y2="112" stroke="#151b26" stroke-width="1"/><line x1="0" y1="140" x2="1200" y2="140" stroke="#151b26" stroke-width="1"/><line x1="0" y1="168" x2="1200" y2="168" stroke="#151b26" stroke-width="1"/><line x1="0" y1="196" x2="1200" y2="196" stroke="#151b26" stroke-width="1"/><line x1="0" y1="224" x2="1200" y2="224" stroke="#151b26" stroke-width="1"/><path d="M18 32 L18 18 L32 18" fill="none" stroke="#5b6675" stroke-width="1.5"/><path d="M1182 32 L1182 18 L1168 18" fill="none" stroke="#5b6675" stroke-width="1.5"/><path d="M18 208 L18 222 L32 222" fill="none" stroke="#5b6675" stroke-width="1.5"/><path d="M1182 208 L1182 222 L1168 222" fill="none" stroke="#5b6675" stroke-width="1.5"/><circle cx="108" cy="120" r="52" fill="none" stroke="#232b38" stroke-width="1.5"/><circle cx="108" cy="120" r="40" fill="none" stroke="#ffb454" stroke-width="2"/><circle cx="108" cy="120" r="7" fill="#ffb454"/><g><line x1="108.0" y1="74.0" x2="108.0" y2="68.0" stroke="#5b6675" stroke-width="2"/><line x1="131.0" y1="80.2" x2="134.0" y2="75.0" stroke="#5b6675" stroke-width="2"/><line x1="147.8" y1="97.0" x2="153.0" y2="94.0" stroke="#5b6675" stroke-width="2"/><line x1="154.0" y1="120.0" x2="160.0" y2="120.0" stroke="#5b6675" stroke-width="2"/><line x1="147.8" y1="143.0" x2="153.0" y2="146.0" stroke="#5b6675" stroke-width="2"/><line x1="131.0" y1="159.8" x2="134.0" y2="165.0" stroke="#5b6675" stroke-width="2"/><line x1="108.0" y1="166.0" x2="108.0" y2="172.0" stroke="#5b6675" stroke-width="2"/><line x1="85.0" y1="159.8" x2="82.0" y2="165.0" stroke="#5b6675" stroke-width="2"/><line x1="68.2" y1="143.0" x2="63.0" y2="146.0" stroke="#5b6675" stroke-width="2"/><line x1="62.0" y1="120.0" x2="56.0" y2="120.0" stroke="#5b6675" stroke-width="2"/><line x1="68.2" y1="97.0" x2="63.0" y2="94.0" stroke="#5b6675" stroke-width="2"/><line x1="85.0" y1="80.2" x2="82.0" y2="75.0" stroke="#5b6675" stroke-width="2"/><animateTransform attributeName="transform" type="rotate" from="0 108 120" to="360 108 120" dur="40s" repeatCount="indefinite"/></g><text x="200" y="102" font-family="-apple-system,'Segoe UI',system-ui,Helvetica,Arial,sans-serif" font-size="46" font-weight="800" letter-spacing="1" fill="#e6edf3">ASHISH VERMA</text><text x="202" y="136" font-size="14" letter-spacing="3" fill="#8b98a9">SIMULATION &amp; SYSTEMS ENGINEER</text><text x="202" y="162" font-size="12" letter-spacing="2" fill="#5b6675">UNITY / C#  ·  GO  ·  PYTHON  ·  TYPESCRIPT</text><text x="202" y="196" font-size="15" fill="#ffb454">&gt; builds it from scratch. proves it correct.<tspan fill="#e6edf3">_<animate attributeName="opacity" values="1;1;0;0" keyTimes="0;0.5;0.5;1" dur="1.1s" repeatCount="indefinite"/></tspan></text><circle cx="1050" cy="120" r="74" fill="none" stroke="#232b38" stroke-width="1.5"/><circle cx="1050" cy="120" r="49" fill="none" stroke="#232b38" stroke-width="1"/><circle cx="1050" cy="120" r="24" fill="none" stroke="#232b38" stroke-width="1"/><line x1="976" y1="120" x2="1124" y2="120" stroke="#232b38" stroke-width="1"/><line x1="1050" y1="46" x2="1050" y2="194" stroke="#232b38" stroke-width="1"/><circle cx="1080" cy="96" r="3.5" fill="#7dd3fc"><animate attributeName="opacity" values="0;1;0" dur="4s" begin="0s" repeatCount="indefinite"/></circle><circle cx="1012" cy="138" r="3.5" fill="#7dd3fc"><animate attributeName="opacity" values="0;1;0" dur="4s" begin="1.3s" repeatCount="indefinite"/></circle><circle cx="1062" cy="164" r="3.5" fill="#7dd3fc"><animate attributeName="opacity" values="0;1;0" dur="4s" begin="2.6s" repeatCount="indefinite"/></circle><g><line x1="1050" y1="120" x2="1050" y2="46" stroke="#ffb454" stroke-width="2"/><path d="M1050 120 L1050 46 A74 74 0 0 1 1097.6 63.3 Z" fill="#ffb454" opacity="0.12"/><animateTransform attributeName="transform" type="rotate" from="0 1050 120" to="360 1050 120" dur="6s" repeatCount="indefinite"/></g></svg>