<svg xmlns="http://www.w3.org/2000/svg" viewBox="0 0 1200 376" font-family="ui-monospace,SFMono-Regular,Menlo,Consolas,'Liberation Mono',monospace"><rect width="1200" height="376" fill="#0b0f14"/><line x1="0" y1="0" x2="0" y2="376" stroke="#151b26" stroke-width="1"/><line x1="28" y1="0" x2="28" y2="376" stroke="#151b26" stroke-width="1"/><line x1="56" y1="0" x2="56" y2="376" stroke="#151b26" stroke-width="1"/><line x1="84" y1="0" x2="84" y2="376" stroke="#151b26" stroke-width="1"/><line x1="112" y1="0" x2="112" y2="376" stroke="#151b26" stroke-width="1"/><line x1="140" y1="0" x2="140" y2="376" stroke="#151b26" stroke-width="1"/><line x1="168" y1="0" x2="168" y2="376" stroke="#151b26" stroke-width="1"/><line x1="196" y1="0" x2="196" y2="376" stroke="#151b26" stroke-width="1"/><line x1="224" y1="0" x2="224" y2="376" stroke="#151b26" stroke-width="1"/><line x1="252" y1="0" x2="252" y2="376" stroke="#151b26" stroke-width="1"/><line x1="280" y1="0" x2="280" y2="376" stroke="#151b26" stroke-width="1"/><line x1="308" y1="0" x2="308" y2="376" stroke="#151b26" stroke-width="1"/><line x1="336" y1="0" x2="336" y2="376" stroke="#151b26" stroke-width="1"/><line x1="364" y1="0" x2="364" y2="376" stroke="#151b26" stroke-width="1"/><line x1="392" y1="0" x2="392" y2="376" stroke="#151b26" stroke-width="1"/><line x1="420" y1="0" x2="420" y2="376" stroke="#151b26" stroke-width="1"/><line x1="448" y1="0" x2="448" y2="376" stroke="#151b26" stroke-width="1"/><line x1="476" y1="0" x2="476" y2="376" stroke="#151b26" stroke-width="1"/><line x1="504" y1="0" x2="504" y2="376" stroke="#151b26" stroke-width="1"/><line x1="532" y1="0" x2="532" y2="376" stroke="#151b26" stroke-width="1"/><line x1="560" y1="0" x2="560" y2="376" stroke="#151b26" stroke-width="1"/><line x1="588" y1="0" x2="588" y2="376" stroke="#151b26" stroke-width="1"/><line x1="616" y1="0" x2="616" y2="376" stroke="#151b26" stroke-width="1"/><line x1="644" y1="0" x2="644" y2="376" stroke="#151b26" stroke-width="1"/><line x1="672" y1="0" x2="672" y2="376" stroke="#151b26" stroke-width="1"/><line x1="700" y1="0" x2="700" y2="376" stroke="#151b26" stroke-width="1"/><line x1="728" y1="0" x2="728" y2="376" stroke="#151b26" stroke-width="1"/><line x1="756" y1="0" x2="756" y2="376" stroke="#151b26" stroke-width="1"/><line x1="784" y1="0" x2="784" y2="376" stroke="#151b26" stroke-width="1"/><line x1="812" y1="0" x2="812" y2="376" stroke="#151b26" stroke-width="1"/><line x1="840" y1="0" x2="840" y2="376" stroke="#151b26" stroke-width="1"/><line x1="868" y1="0" x2="868" y2="376" stroke="#151b26" stroke-width="1"/><line x1="896" y1="0" x2="896" y2="376" stroke="#151b26" stroke-width="1"/><line x1="924" y1="0" x2="924" y2="376" stroke="#151b26" stroke-width="1"/><line x1="952" y1="0" x2="952" y2="376" stroke="#151b26" stroke-width="1"/><line x1="980" y1="0" x2="980" y2="376" stroke="#151b26" stroke-width="1"/><line x1="1008" y1="0" x2="1008" y2="376" stroke="#151b26" stroke-width="1"/><line x1="1036" y1="0" x2="1036" y2="376" stroke="#151b26" stroke-width="1"/><line x1="1064" y1="0" x2="1064" y2="376" stroke="#151b26" stroke-width="1"/><line x1="1092" y1="0" x2="1092" y2="376" stroke="#151b26" stroke-width="1"/><line x1="1120" y1="0" x2="1120" y2="376" stroke="#151b26" stroke-width="1"/><line x1="1148" y1="0" x2="1148" y2="376" stroke="#151b26" stroke-width="1"/><line x1="1176" y1="0" x2="1176" y2="376" stroke="#151b26" stroke-width="1"/><line x1="0" y1="0" x2="1200" y2="0" stroke="#151b26" stroke-width="1"/><line x1="0" y1="28" x2="1200" y2="28" stroke="#151b26" stroke-width="1"/><line x1="0" y1="56" x2="1200" y2="56" stroke="#151b26" stroke-width="1"/><line x1="0" y1="84" x2="1200" y2="84" stroke="#151b26" stroke-width="1"/><line x1="0" y1="112" x2="1200" y2="112" stroke="#151b26" stroke-width="1"/><line x1="0" y1="140" x2="1200" y2="140" stroke="#151b26" stroke-width="1"/><line x1="0" y1="168" x2="1200" y2="168" stroke="#151b26" stroke-width="1"/><line x1="0" y1="196" x2="1200" y2="196" stroke="#151b26" stroke-width="1"/><line x1="0" y1="224" x2="1200" y2="224" stroke="#151b26" stroke-width="1"/><line x1="0" y1="252" x2="1200" y2="252" stroke="#151b26" stroke-width="1"/><line x1="0" y1="280" x2="1200" y2="280" stroke="#151b26" stroke-width="1"/><line x1="0" y1="308" x2="1200" y2="308" stroke="#151b26" stroke-width="1"/><line x1="0" y1="336" x2="1200" y2="336" stroke="#151b26" stroke-width="1"/><line x1="0" y1="364" x2="1200" y2="364" stroke="#151b26" stroke-width="1"/><text x="24" y="34" font-size="13" letter-spacing="3" fill="#8b98a9">FLIGHT DATA RECORDER · COMMITS PER WEEK, PER REPO</text><text x="1176" y="34" text-anchor="end" font-size="11" letter-spacing="2" fill="#5b6675">TRAILING 52 WEEKS · EACH CHANNEL AUTO-GAINED TO ITS PEAK</text><line x1="24" y1="46" x2="1176" y2="46" stroke="#232b38" stroke-width="1.5"/><line x1="24" y1="114" x2="1176" y2="114" stroke="#232b38" stroke-width="1" stroke-dasharray="2 5"/><circle cx="34" cy="81.0" r="3.5" fill="#c4b5fd"/><text x="46" y="85.0" font-size="12" letter-spacing="1.5" fill="#e6edf3">GROUNDSCHOOL</text><line x1="196" y1="102" x2="1028" y2="102" stroke="#232b38" stroke-width="1"/><path d="M196.0 102.0 L212.3 102.0 L228.6 102.0 L244.9 102.0 L261.3 102.0 L277.6 102.0 L293.9 102.0 L310.2 102.0 L326.5 102.0 L342.8 102.0 L359.1 102.0 L375.5 102.0 L391.8 102.0 L408.1 102.0 L424.4 102.0 L440.7 102.0 L457.0 102.0 L473.3 102.0 L489.6 102.0 L506.0 102.0 L522.3 102.0 L538.6 102.0 L554.9 102.0 L571.2 102.0 L587.5 102.0 L603.8 102.0 L620.2 102.0 L636.5 102.0 L652.8 102.0 L669.1 102.0 L685.4 102.0 L701.7 102.0 L718.0 102.0 L734.4 102.0 L750.7 102.0 L767.0 102.0 L783.3 102.0 L799.6 102.0 L815.9 102.0 L832.2 102.0 L848.5 102.0 L864.9 102.0 L881.2 102.0 L897.5 102.0 L913.8 91.3 L930.1 102.0 L946.4 102.0 L962.7 102.0 L979.1 70.0 L995.4 99.3 L1011.7 96.7 L1028.0 102.0 L1028.0 102 L196.0 102 Z" fill="#c4b5fd" opacity="0"><animate attributeName="opacity" from="0" to="0.10" dur="0.6s" begin="1.65s" fill="freeze"/></path><path d="M196.0 102.0 L212.3 102.0 L228.6 102.0 L244.9 102.0 L261.3 102.0 L277.6 102.0 L293.9 102.0 L310.2 102.0 L326.5 102.0 L342.8 102.0 L359.1 102.0 L375.5 102.0 L391.8 102.0 L408.1 102.0 L424.4 102.0 L440.7 102.0 L457.0 102.0 L473.3 102.0 L489.6 102.0 L506.0 102.0 L522.3 102.0 L538.6 102.0 L554.9 102.0 L571.2 102.0 L587.5 102.0 L603.8 102.0 L620.2 102.0 L636.5 102.0 L652.8 102.0 L669.1 102.0 L685.4 102.0 L701.7 102.0 L718.0 102.0 L734.4 102.0 L750.7 102.0 L767.0 102.0 L783.3 102.0 L799.6 102.0 L815.9 102.0 L832.2 102.0 L848.5 102.0 L864.9 102.0 L881.2 102.0 L897.5 102.0 L913.8 91.3 L930.1 102.0 L946.4 102.0 L962.7 102.0 L979.1 70.0 L995.4 99.3 L1011.7 96.7 L1028.0 102.0" fill="none" stroke="#c4b5fd" stroke-width="2" stroke-linejoin="round" stroke-dasharray="876" stroke-dashoffset="876"><animate attributeName="stroke-dashoffset" from="876" to="0" dur="1.6s" begin="0.15s" fill="freeze" calcMode="spline" keyTimes="0;1" keySplines="0.3 0 0.2 1"/></path><text x="1176" y="81.0" text-anchor="end" font-size="15" font-weight="700" fill="#e6edf3">19 <tspan font-size="10" font-weight="400" fill="#8b98a9">commits</tspan></text><text x="1176" y="98.0" text-anchor="end" font-size="10" fill="#5b6675">pk 12/wk</text><line x1="24" y1="172" x2="1176" y2="172" stroke="#232b38" stroke-width="1" stroke-dasharray="2 5"/><circle cx="34" cy="139.0" r="3.5" fill="#7dd3fc"/><text x="46" y="143.0" font-size="12" letter-spacing="1.5" fill="#e6edf3">GITENGINE</text><line x1="196" y1="160" x2="1028" y2="160" stroke="#232b38" stroke-width="1"/><path d="M196.0 160.0 L212.3 160.0 L228.6 160.0 L244.9 160.0 L261.3 160.0 L277.6 160.0 L293.9 160.0 L310.2 160.0 L326.5 160.0 L342.8 160.0 L359.1 160.0 L375.5 160.0 L391.8 160.0 L408.1 160.0 L424.4 157.3 L440.7 160.0 L457.0 160.0 L473.3 160.0 L489.6 154.7 L506.0 154.7 L522.3 130.7 L538.6 149.3 L554.9 160.0 L571.2 154.7 L587.5 160.0 L603.8 160.0 L620.2 154.7 L636.5 160.0 L652.8 160.0 L669.1 160.0 L685.4 160.0 L701.7 160.0 L718.0 160.0 L734.4 160.0 L750.7 160.0 L767.0 160.0 L783.3 160.0 L799.6 160.0 L815.9 160.0 L832.2 160.0 L848.5 160.0 L864.9 160.0 L881.2 160.0 L897.5 160.0 L913.8 160.0 L930.1 160.0 L946.4 128.0 L962.7 160.0 L979.1 146.7 L995.4 160.0 L1011.7 160.0 L1028.0 160.0 L1028.0 160 L196.0 160 Z" fill="#7dd3fc" opacity="0"><animate attributeName="opacity" from="0" to="0.10" dur="0.6s" begin="1.83s" fill="freeze"/></path><path d="M196.0 160.0 L212.3 160.0 L228.6 160.0 L244.9 160.0 L261.3 160.0 L277.6 160.0 L293.9 160.0 L310.2 160.0 L326.5 160.0 L342.8 160.0 L359.1 160.0 L375.5 160.0 L391.8 160.0 L408.1 160.0 L424.4 157.3 L440.7 160.0 L457.0 160.0 L473.3 160.0 L489.6 154.7 L506.0 154.7 L522.3 130.7 L538.6 149.3 L554.9 160.0 L571.2 154.7 L587.5 160.0 L603.8 160.0 L620.2 154.7 L636.5 160.0 L652.8 160.0 L669.1 160.0 L685.4 160.0 L701.7 160.0 L718.0 160.0 L734.4 160.0 L750.7 160.0 L767.0 160.0 L783.3 160.0 L799.6 160.0 L815.9 160.0 L832.2 160.0 L848.5 160.0 L864.9 160.0 L881.2 160.0 L897.5 160.0 L913.8 160.0 L930.1 160.0 L946.4 128.0 L962.7 160.0 L979.1 146.7 L995.4 160.0 L1011.7 160.0 L1028.0 160.0" fill="none" stroke="#7dd3fc" stroke-width="2" stroke-linejoin="round" stroke-dasharray="910" stroke-dashoffset="910"><animate attributeName="stroke-dashoffset" from="910" to="0" dur="1.6s" begin="0.33s" fill="freeze" calcMode="spline" keyTimes="0;1" keySplines="0.3 0 0.2 1"/></path><text x="1176" y="139.0" text-anchor="end" font-size="15" font-weight="700" fill="#e6edf3">41 <tspan font-size="10" font-weight="400" fill="#8b98a9">commits</tspan></text><text x="1176" y="156.0" text-anchor="end" font-size="10" fill="#5b6675">pk 12/wk</text><line x1="24" y1="230" x2="1176" y2="230" stroke="#232b38" stroke-width="1" stroke-dasharray="2 5"/><circle cx="34" cy="197.0" r="3.5" fill="#ffb454"/><text x="46" y="201.0" font-size="12" letter-spacing="1.5" fill="#e6edf3">PULSEHTTP</text><line x1="196" y1="218" x2="1028" y2="218" stroke="#232b38" stroke-width="1"/><path d="M196.0 218.0 L212.3 218.0 L228.6 218.0 L244.9 218.0 L261.3 218.0 L277.6 218.0 L293.9 218.0 L310.2 218.0 L326.5 218.0 L342.8 218.0 L359.1 218.0 L375.5 218.0 L391.8 218.0 L408.1 216.0 L424.4 218.0 L440.7 218.0 L457.0 218.0 L473.3 218.0 L489.6 218.0 L506.0 218.0 L522.3 218.0 L538.6 218.0 L554.9 218.0 L571.2 218.0 L587.5 218.0 L603.8 218.0 L620.2 218.0 L636.5 218.0 L652.8 218.0 L669.1 218.0 L685.4 218.0 L701.7 218.0 L718.0 218.0 L734.4 218.0 L750.7 218.0 L767.0 218.0 L783.3 218.0 L799.6 218.0 L815.9 218.0 L832.2 218.0 L848.5 218.0 L864.9 218.0 L881.2 218.0 L897.5 218.0 L913.8 218.0 L930.1 218.0 L946.4 186.0 L962.7 218.0 L979.1 212.0 L995.4 218.0 L1011.7 218.0 L1028.0 218.0 L1028.0 218 L196.0 218 Z" fill="#ffb454" opacity="0"><animate attributeName="opacity" from="0" to="0.10" dur="0.6s" begin="2.01s" fill="freeze"/></path><path d="M196.0 218.0 L212.3 218.0 L228.6 218.0 L244.9 218.0 L261.3 218.0 L277.6 218.0 L293.9 218.0 L310.2 218.0 L326.5 218.0 L342.8 218.0 L359.1 218.0 L375.5 218.0 L391.8 218.0 L408.1 216.0 L424.4 218.0 L440.7 218.0 L457.0 218.0 L473.3 218.0 L489.6 218.0 L506.0 218.0 L522.3 218.0 L538.6 218.0 L554.9 218.0 L571.2 218.0 L587.5 218.0 L603.8 218.0 L620.2 218.0 L636.5 218.0 L652.8 218.0 L669.1 218.0 L685.4 218.0 L701.7 218.0 L718.0 218.0 L734.4 218.0 L750.7 218.0 L767.0 218.0 L783.3 218.0 L799.6 218.0 L815.9 218.0 L832.2 218.0 L848.5 218.0 L864.9 218.0 L881.2 218.0 L897.5 218.0 L913.8 218.0 L930.1 218.0 L946.4 186.0 L962.7 218.0 L979.1 212.0 L995.4 218.0 L1011.7 218.0 L1028.0 218.0" fill="none" stroke="#ffb454" stroke-width="2" stroke-linejoin="round" stroke-dasharray="874" stroke-dashoffset="874"><animate attributeName="stroke-dashoffset" from="874" to="0" dur="1.6s" begin="0.51s" fill="freeze" calcMode="spline" keyTimes="0;1" keySplines="0.3 0 0.2 1"/></path><text x="1176" y="197.0" text-anchor="end" font-size="15" font-weight="700" fill="#e6edf3">20 <tspan font-size="10" font-weight="400" fill="#8b98a9">commits</tspan></text><text x="1176" y="214.0" text-anchor="end" font-size="10" fill="#5b6675">pk 16/wk</text><line x1="24" y1="288" x2="1176" y2="288" stroke="#232b38" stroke-width="1" stroke-dasharray="2 5"/><circle cx="34" cy="255.0" r="3.5" fill="#4ade80"/><text x="46" y="259.0" font-size="12" letter-spacing="1.5" fill="#e6edf3">JSON-LP</text><line x1="196" y1="276" x2="1028" y2="276" stroke="#232b38" stroke-width="1"/><path d="M196.0 276.0 L212.3 276.0 L228.6 276.0 L244.9 276.0 L261.3 276.0 L277.6 276.0 L293.9 276.0 L310.2 276.0 L326.5 276.0 L342.8 276.0 L359.1 276.0 L375.5 276.0 L391.8 276.0 L408.1 276.0 L424.4 276.0 L440.7 276.0 L457.0 276.0 L473.3 276.0 L489.6 276.0 L506.0 276.0 L522.3 276.0 L538.6 276.0 L554.9 276.0 L571.2 276.0 L587.5 276.0 L603.8 276.0 L620.2 276.0 L636.5 276.0 L652.8 276.0 L669.1 276.0 L685.4 276.0 L701.7 276.0 L718.0 276.0 L734.4 276.0 L750.7 276.0 L767.0 276.0 L783.3 276.0 L799.6 276.0 L815.9 276.0 L832.2 276.0 L848.5 276.0 L864.9 276.0 L881.2 276.0 L897.5 276.0 L913.8 276.0 L930.1 276.0 L946.4 260.0 L962.7 276.0 L979.1 244.0 L995.4 276.0 L1011.7 276.0 L1028.0 276.0 L1028.0 276 L196.0 276 Z" fill="#4ade80" opacity="0"><animate attributeName="opacity" from="0" to="0.10" dur="0.6s" begin="2.19s" fill="freeze"/></path><path d="M196.0 276.0 L212.3 276.0 L228.6 276.0 L244.9 276.0 L261.3 276.0 L277.6 276.0 L293.9 276.0 L310.2 276.0 L326.5 276.0 L342.8 276.0 L359.1 276.0 L375.5 276.0 L391.8 276.0 L408.1 276.0 L424.4 276.0 L440.7 276.0 L457.0 276.0 L473.3 276.0 L489.6 276.0 L506.0 276.0 L522.3 276.0 L538.6 276.0 L554.9 276.0 L571.2 276.0 L587.5 276.0 L603.8 276.0 L620.2 276.0 L636.5 276.0 L652.8 276.0 L669.1 276.0 L685.4 276.0 L701.7 276.0 L718.0 276.0 L734.4 276.0 L750.7 276.0 L767.0 276.0 L783.3 276.0 L799.6 276.0 L815.9 276.0 L832.2 276.0 L848.5 276.0 L864.9 276.0 L881.2 276.0 L897.5 276.0 L913.8 276.0 L930.1 276.0 L946.4 260.0 L962.7 276.0 L979.1 244.0 L995.4 276.0 L1011.7 276.0 L1028.0 276.0" fill="none" stroke="#4ade80" stroke-width="2" stroke-linejoin="round" stroke-dasharray="884" stroke-dashoffset="884"><animate attributeName="stroke-dashoffset" from="884" to="0" dur="1.6s" begin="0.69s" fill="freeze" calcMode="spline" keyTimes="0;1" keySplines="0.3 0 0.2 1"/></path><text x="1176" y="255.0" text-anchor="end" font-size="15" font-weight="700" fill="#e6edf3">9 <tspan font-size="10" font-weight="400" fill="#8b98a9">commits</tspan></text><text x="1176" y="272.0" text-anchor="end" font-size="10" fill="#5b6675">pk 6/wk</text><line x1="24" y1="346" x2="1176" y2="346" stroke="#232b38" stroke-width="1" stroke-dasharray="2 5"/><circle cx="34" cy="313.0" r="3.5" fill="#8b98a9"/><text x="46" y="317.0" font-size="12" letter-spacing="1.5" fill="#e6edf3">WC-GO</text><line x1="196" y1="334" x2="1028" y2="334" stroke="#232b38" stroke-width="1"/><path d="M196.0 334.0 L212.3 334.0 L228.6 334.0 L244.9 334.0 L261.3 334.0 L277.6 334.0 L293.9 334.0 L310.2 334.0 L326.5 334.0 L342.8 334.0 L359.1 334.0 L375.5 334.0 L391.8 308.4 L408.1 302.0 L424.4 334.0 L440.7 334.0 L457.0 334.0 L473.3 334.0 L489.6 334.0 L506.0 334.0 L522.3 334.0 L538.6 334.0 L554.9 334.0 L571.2 334.0 L587.5 334.0 L603.8 334.0 L620.2 334.0 L636.5 334.0 L652.8 334.0 L669.1 334.0 L685.4 334.0 L701.7 334.0 L718.0 334.0 L734.4 334.0 L750.7 334.0 L767.0 334.0 L783.3 334.0 L799.6 334.0 L815.9 334.0 L832.2 334.0 L848.5 334.0 L864.9 334.0 L881.2 334.0 L897.5 334.0 L913.8 334.0 L930.1 334.0 L946.4 334.0 L962.7 334.0 L979.1 308.4 L995.4 334.0 L1011.7 334.0 L1028.0 334.0 L1028.0 334 L196.0 334 Z" fill="#8b98a9" opacity="0"><animate attributeName="opacity" from="0" to="0.10" dur="0.6s" begin="2.37s" fill="freeze"/></path><path d="M196.0 334.0 L212.3 334.0 L228.6 334.0 L244.9 334.0 L261.3 334.0 L277.6 334.0 L293.9 334.0 L310.2 334.0 L326.5 334.0 L342.8 334.0 L359.1 334.0 L375.5 334.0 L391.8 308.4 L408.1 302.0 L424.4 334.0 L440.7 334.0 L457.0 334.0 L473.3 334.0 L489.6 334.0 L506.0 334.0 L522.3 334.0 L538.6 334.0 L554.9 334.0 L571.2 334.0 L587.5 334.0 L603.8 334.0 L620.2 334.0 L636.5 334.0 L652.8 334.0 L669.1 334.0 L685.4 334.0 L701.7 334.0 L718.0 334.0 L734.4 334.0 L750.7 334.0 L767.0 334.0 L783.3 334.0 L799.6 334.0 L815.9 334.0 L832.2 334.0 L848.5 334.0 L864.9 334.0 L881.2 334.0 L897.5 334.0 L913.8 334.0 L930.1 334.0 L946.4 334.0 L962.7 334.0 L979.1 308.4 L995.4 334.0 L1011.7 334.0 L1028.0 334.0" fill="none" stroke="#8b98a9" stroke-width="2" stroke-linejoin="round" stroke-dasharray="895" stroke-dashoffset="895"><animate attributeName="stroke-dashoffset" from="895" to="0" dur="1.6s" begin="0.87s" fill="freeze" calcMode="spline" keyTimes="0;1" keySplines="0.3 0 0.2 1"/></path><text x="1176" y="313.0" text-anchor="end" font-size="15" font-weight="700" fill="#e6edf3">13 <tspan font-size="10" font-weight="400" fill="#8b98a9">commits</tspan></text><text x="1176" y="330.0" text-anchor="end" font-size="10" fill="#5b6675">pk 5/wk</text><line x1="326.5" y1="348" x2="326.5" y2="353" stroke="#5b6675" stroke-width="1.5"/><text x="326.5" y="368" text-anchor="middle" font-size="10" letter-spacing="1" fill="#5b6675">NOV</text><line x1="473.3" y1="348" x2="473.3" y2="353" stroke="#5b6675" stroke-width="1.5"/><text x="473.3" y="368" text-anchor="middle" font-size="10" letter-spacing="1" fill="#5b6675">JAN</text><line x1="603.8" y1="348" x2="603.8" y2="353" stroke="#5b6675" stroke-width="1.5"/><text x="603.8" y="368" text-anchor="middle" font-size="10" letter-spacing="1" fill="#5b6675">MAR</text><line x1="750.7" y1="348" x2="750.7" y2="353" stroke="#5b6675" stroke-width="1.5"/><text x="750.7" y="368" text-anchor="middle" font-size="10" letter-spacing="1" fill="#5b6675">MAY</text><line x1="897.5" y1="348" x2="897.5" y2="353" stroke="#5b6675" stroke-width="1.5"/><text x="897.5" y="368" text-anchor="middle" font-size="10" letter-spacing="1" fill="#5b6675">JUL</text><line x1="1028.0" y1="348" x2="1028.0" y2="353" stroke="#5b6675" stroke-width="1.5"/><text x="1028.0" y="368" text-anchor="middle" font-size="10" letter-spacing="1" fill="#5b6675">SEP</text></svg>